HIERARCHY
ROOT mixamorig:Hips
{
	OFFSET 0.000000 201.639420 0.000000
	CHANNELS 6 Xposition Yposition Zposition Xrotation Yrotation Zrotation
	JOINT mixamorig:Spine
	{
		OFFSET 0.006200 19.524994 -2.481800
		CHANNELS 3 Xrotation Yrotation Zrotation
		JOINT mixamorig:Spine1
		{
			OFFSET -0.000900 22.835007 -2.825400
			CHANNELS 3 Xrotation Yrotation Zrotation
			JOINT mixamorig:Spine2
			{
				OFFSET -0.020600 26.552490 -3.193300
				CHANNELS 3 Xrotation Yrotation Zrotation
				JOINT mixamorig:Neck
				{
					OFFSET -0.060000 30.701813 1.352200
					CHANNELS 3 Xrotation Yrotation Zrotation
					JOINT mixamorig:Head
					{
						OFFSET -0.087200 22.547607 3.670900
						CHANNELS 3 Xrotation Yrotation Zrotation
						JOINT mixamorig:HeadTop_End
						{
							OFFSET -0.830600 40.355194 7.893500
							CHANNELS 3 Xrotation Yrotation Zrotation
							End Site
							{
								OFFSET 0.000000 30.592346 0.000000
							}
						}
						JOINT mixamorig:RightEye
						{
							OFFSET -6.302100 18.118591 16.197100
							CHANNELS 3 Xrotation Yrotation Zrotation
							End Site
							{
								OFFSET 0.000000 30.592346 0.000000
							}
						}
						JOINT mixamorig:LeftEye
						{
							OFFSET 6.741500 18.382690 16.401899
							CHANNELS 3 Xrotation Yrotation Zrotation
							End Site
							{
								OFFSET 0.000000 30.592346 0.000000
							}
						}
					}
				}
				JOINT mixamorig:LeftShoulder
				{
					OFFSET 11.924900 18.230499 1.425400
					CHANNELS 3 Xrotation Yrotation Zrotation
					JOINT mixamorig:LeftArm
					{
						OFFSET 25.435989 -0.697632 -5.229300
						CHANNELS 3 Xrotation Yrotation Zrotation
						JOINT mixamorig:LeftForeArm
						{
							OFFSET 54.684776 0.000000 0.000000
							CHANNELS 3 Xrotation Yrotation Zrotation
							JOINT mixamorig:LeftHand
							{
								OFFSET 55.098175 0.000000 0.000000
								CHANNELS 3 Xrotation Yrotation Zrotation
								JOINT mixamorig:LeftHandMiddle1
								{
									OFFSET 23.369751 0.000000 0.000000
									CHANNELS 3 Xrotation Yrotation Zrotation
									JOINT mixamorig:LeftHandMiddle2
									{
										OFFSET 6.378677 0.000000 0.000000
										CHANNELS 3 Xrotation Yrotation Zrotation
										JOINT mixamorig:LeftHandMiddle3
										{
											OFFSET 6.148331 0.000000 0.000000
											CHANNELS 3 Xrotation Yrotation Zrotation
											JOINT mixamorig:LeftHandMiddle4
											{
												OFFSET 6.582504 0.000000 0.000000
												CHANNELS 3 Xrotation Yrotation Zrotation
												End Site
												{
													OFFSET -1.168900 6.395691 1.028606
												}
											}
										}
									}
								}
								JOINT mixamorig:LeftHandThumb1
								{
									OFFSET 7.235672 -3.848206 5.434273
									CHANNELS 3 Xrotation Yrotation Zrotation
									JOINT mixamorig:LeftHandThumb2
									{
										OFFSET 6.568451 -3.792297 3.792300
										CHANNELS 3 Xrotation Yrotation Zrotation
										JOINT mixamorig:LeftHandThumb3
										{
											OFFSET 6.063080 -3.500519 3.500518
											CHANNELS 3 Xrotation Yrotation Zrotation
											JOINT mixamorig:LeftHandThumb4
											{
												OFFSET 4.793182 -2.767334 2.767349
												CHANNELS 3 Xrotation Yrotation Zrotation
												End Site
												{
													OFFSET 0.101639 6.054260 1.275483
												}
											}
										}
									}
								}
								JOINT mixamorig:LeftHandIndex1
								{
									OFFSET 23.101074 -0.309540 4.992809
									CHANNELS 3 Xrotation Yrotation Zrotation
									JOINT mixamorig:LeftHandIndex2
									{
										OFFSET 6.226883 0.000000 0.000000
										CHANNELS 3 Xrotation Yrotation Zrotation
										JOINT mixamorig:LeftHandIndex3
										{
											OFFSET 6.094330 0.000000 0.000000
											CHANNELS 3 Xrotation Yrotation Zrotation
											JOINT mixamorig:LeftHandIndex4
											{
												OFFSET 5.482605 0.000000 0.000000
												CHANNELS 3 Xrotation Yrotation Zrotation
												End Site
												{
													OFFSET -1.427902 5.233032 0.797164
												}
											}
										}
									}
								}
								JOINT mixamorig:LeftHandRing1
								{
									OFFSET 22.299240 0.021149 -3.964172
									CHANNELS 3 Xrotation Yrotation Zrotation
									JOINT mixamorig:LeftHandRing2
									{
										OFFSET 6.321869 0.000000 0.000000
										CHANNELS 3 Xrotation Yrotation Zrotation
										JOINT mixamorig:LeftHandRing3
										{
											OFFSET 5.899796 0.000000 0.000000
											CHANNELS 3 Xrotation Yrotation Zrotation
											JOINT mixamorig:LeftHandRing4
											{
												OFFSET 6.517899 0.000000 0.000000
												CHANNELS 3 Xrotation Yrotation Zrotation
												End Site
												{
													OFFSET -1.637299 6.232208 0.980890
												}
											}
										}
									}
								}
								JOINT mixamorig:LeftHandPinky1
								{
									OFFSET 20.463791 -0.302338 -8.562233
									CHANNELS 3 Xrotation Yrotation Zrotation
									JOINT mixamorig:LeftHandPinky2
									{
										OFFSET 6.908646 0.000000 0.000000
										CHANNELS 3 Xrotation Yrotation Zrotation
										JOINT mixamorig:LeftHandPinky3
										{
											OFFSET 4.622849 0.000000 0.000000
											CHANNELS 3 Xrotation Yrotation Zrotation
											JOINT mixamorig:LeftHandPinky4
											{
												OFFSET 5.216080 0.000000 0.000000
												CHANNELS 3 Xrotation Yrotation Zrotation
												End Site
												{
													OFFSET -0.606308 5.116241 0.814926
												}
											}
										}
									}
								}
							}
						}
					}
				}
				JOINT mixamorig:RightShoulder
				{
					OFFSET -12.001300 18.284088 1.348900
					CHANNELS 3 Xrotation Yrotation Zrotation
					JOINT mixamorig:RightArm
					{
						OFFSET -25.308500 -0.751312 -5.164599
						CHANNELS 3 Xrotation Yrotation Zrotation
						JOINT mixamorig:RightForeArm
						{
							OFFSET -54.684429 0.000000 0.000000
							CHANNELS 3 Xrotation Yrotation Zrotation
							JOINT mixamorig:RightHand
							{
								OFFSET -55.150291 0.000000 0.000000
								CHANNELS 3 Xrotation Yrotation Zrotation
								JOINT mixamorig:RightHandMiddle1
								{
									OFFSET -23.317566 0.000000 0.000000
									CHANNELS 3 Xrotation Yrotation Zrotation
									JOINT mixamorig:RightHandMiddle2
									{
										OFFSET -6.378403 0.000000 0.000000
										CHANNELS 3 Xrotation Yrotation Zrotation
										JOINT mixamorig:RightHandMiddle3
										{
											OFFSET -6.148193 0.000000 0.000000
											CHANNELS 3 Xrotation Yrotation Zrotation
											JOINT mixamorig:RightHandMiddle4
											{
												OFFSET -6.583389 0.000000 0.000000
												CHANNELS 3 Xrotation Yrotation Zrotation
												End Site
												{
													OFFSET 1.171692 6.395905 1.029786
												}
											}
										}
									}
								}
								JOINT mixamorig:RightHandThumb1
								{
									OFFSET -7.190521 -3.860474 5.435846
									CHANNELS 3 Xrotation Yrotation Zrotation
									JOINT mixamorig:RightHandThumb2
									{
										OFFSET -6.567429 -3.791718 3.791708
										CHANNELS 3 Xrotation Yrotation Zrotation
										JOINT mixamorig:RightHandThumb3
										{
											OFFSET -6.062469 -3.500153 3.500166
											CHANNELS 3 Xrotation Yrotation Zrotation
											JOINT mixamorig:RightHandThumb4
											{
												OFFSET -4.792618 -2.767029 2.767022
												CHANNELS 3 Xrotation Yrotation Zrotation
												End Site
												{
													OFFSET -0.100327 6.053253 1.276754
												}
											}
										}
									}
								}
								JOINT mixamorig:RightHandIndex1
								{
									OFFSET -23.048981 -0.310791 4.992554
									CHANNELS 3 Xrotation Yrotation Zrotation
									JOINT mixamorig:RightHandIndex2
									{
										OFFSET -6.227539 0.000000 0.000000
										CHANNELS 3 Xrotation Yrotation Zrotation
										JOINT mixamorig:RightHandIndex3
										{
											OFFSET -6.095047 0.000000 0.000000
											CHANNELS 3 Xrotation Yrotation Zrotation
											JOINT mixamorig:RightHandIndex4
											{
												OFFSET -5.484772 0.000000 0.000000
												CHANNELS 3 Xrotation Yrotation Zrotation
												End Site
												{
													OFFSET 1.420593 5.237305 0.797056
												}
											}
										}
									}
								}
								JOINT mixamorig:RightHandRing1
								{
									OFFSET -22.246323 0.020569 -3.963762
									CHANNELS 3 Xrotation Yrotation Zrotation
									JOINT mixamorig:RightHandRing2
									{
										OFFSET -6.322128 0.000000 0.000000
										CHANNELS 3 Xrotation Yrotation Zrotation
										JOINT mixamorig:RightHandRing3
										{
											OFFSET -5.900024 0.000000 0.000000
											CHANNELS 3 Xrotation Yrotation Zrotation
											JOINT mixamorig:RightHandRing4
											{
												OFFSET -6.518356 0.000000 0.000000
												CHANNELS 3 Xrotation Yrotation Zrotation
												End Site
												{
													OFFSET 1.636398 6.232697 0.982186
												}
											}
										}
									}
								}
								JOINT mixamorig:RightHandPinky1
								{
									OFFSET -20.411011 -0.303314 -8.561701
									CHANNELS 3 Xrotation Yrotation Zrotation
									JOINT mixamorig:RightHandPinky2
									{
										OFFSET -6.907349 0.000000 0.000000
										CHANNELS 3 Xrotation Yrotation Zrotation
										JOINT mixamorig:RightHandPinky3
										{
											OFFSET -4.623840 0.000000 0.000000
											CHANNELS 3 Xrotation Yrotation Zrotation
											JOINT mixamorig:RightHandPinky4
											{
												OFFSET -5.218353 0.000000 0.000000
												CHANNELS 3 Xrotation Yrotation Zrotation
												End Site
												{
													OFFSET 0.602097 5.118835 0.816273
												}
											}
										}
									}
								}
							}
						}
					}
				}
			}
		}
	}
	JOINT mixamorig:LeftUpLeg
	{
		OFFSET 18.168400 -13.561905 -0.039000
		CHANNELS 3 Xrotation Yrotation Zrotation
		JOINT mixamorig:LeftLeg
		{
			OFFSET 0.577358 -80.825211 -3.695000
			CHANNELS 3 Xrotation Yrotation Zrotation
			JOINT mixamorig:LeftFoot
			{
				OFFSET -0.577356 -83.370262 -6.520700
				CHANNELS 3 Xrotation Yrotation Zrotation
				JOINT mixamorig:LeftToeBase
				{
					OFFSET 0.750401 -20.798306 25.135401
					CHANNELS 3 Xrotation Yrotation Zrotation
					JOINT mixamorig:LeftToe_End
					{
						OFFSET -0.000500 0.001200 19.917799
						CHANNELS 3 Xrotation Yrotation Zrotation
						End Site
						{
							OFFSET 0.000000 19.917805 0.000000
						}
					}
				}
			}
		}
	}
	JOINT mixamorig:RightUpLeg
	{
		OFFSET -18.162500 -13.585098 -0.041000
		CHANNELS 3 Xrotation Yrotation Zrotation
		JOINT mixamorig:RightLeg
		{
			OFFSET -0.595024 -80.945297 -3.631900
			CHANNELS 3 Xrotation Yrotation Zrotation
			JOINT mixamorig:RightFoot
			{
				OFFSET 0.595024 -83.218193 -6.561200
				CHANNELS 3 Xrotation Yrotation Zrotation
				JOINT mixamorig:RightToeBase
				{
					OFFSET -0.753601 -20.807106 25.115000
					CHANNELS 3 Xrotation Yrotation Zrotation
					JOINT mixamorig:RightToe_End
					{
						OFFSET 0.000299 0.001700 19.918200
						CHANNELS 3 Xrotation Yrotation Zrotation
						End Site
						{
							OFFSET 0.000000 19.918203 0.000000
						}
					}
				}
			}
		}
	}
}
MOTION
Frames: 5
Frame Time: 0.033333
5.983269 192.074432 30.341843 10.280321 1.017787 -1.967800 3.205363 -0.648456 1.850515 6.192144 -1.340032 1.935955 6.212427 -1.273624 1.903392 -14.242599 -2.203992 1.818715 -52.391936 -8.613218 -2.559703 -0.000001 -0.000000 -0.000000 -0.000001 -0.000000 -0.000000 -0.000001 -0.000000 -0.000000 0.980450 -2.593134 -1.462452 24.786671 -56.552054 2.908639 -0.000014 -77.376631 0.000012 38.808322 -7.853416 23.702404 0.002823 0.197474 -1.636623 0.112691 1.243130 -10.359031 0.028138 0.623160 -5.170915 -0.000000 -0.000001 -0.000001 -2.114512 -20.824822 2.375214 5.402108 26.915117 2.051656 0.256272 11.035668 3.436387 0.000000 0.000002 0.000000 0.002876 0.199405 -1.652607 0.112345 1.241229 -10.343039 0.028139 0.623157 -5.170919 -0.000000 0.000002 -0.000002 0.002875 0.199404 -1.652604 0.112344 1.241234 -10.343041 0.028140 0.623152 -5.170916 -0.000002 -0.000001 0.000001 0.101940 4.252492 -1.146031 0.105444 -2.814064 -10.845485 0.028136 0.623154 -5.170911 0.000000 0.000001 -0.000001 0.488995 -7.901425 8.622770 -26.479463 -0.696249 66.220405 -0.000032 53.733610 0.000033 62.175437 -0.237622 5.646287 0.036414 -0.712252 5.854938 0.218280 -1.731883 14.365570 0.054763 -0.872792 7.181132 0.000002 -0.000001 0.000001 -1.869517 5.271208 -5.215703 6.154558 -26.178826 -1.323885 -0.494163 -8.611266 -3.004296 -0.000001 -0.000002 -0.000003 0.036415 -0.712247 5.854944 0.218284 -1.731880 14.365565 0.054772 -0.872785 7.181138 -0.000001 0.000001 -0.000002 0.036415 -0.712254 5.854935 0.218278 -1.731873 14.365573 0.054762 -0.872785 7.181137 -0.000001 0.000000 0.000004 0.036415 -0.712254 5.854939 0.218284 -1.731877 14.365561 0.054771 -0.872778 7.181152 -0.000002 -0.000001 0.000001 -44.081761 11.509536 16.745170 49.226007 -1.555922 4.023700 -1.788506 0.465498 -7.649633 -9.507129 0.002749 -0.506066 -0.000000 0.000002 -0.000000 -39.536748 7.985939 -18.163589 52.617172 -10.556655 0.597793 -7.125128 -1.494754 8.178285 0.158940 -0.000005 0.000002 0.000000 0.000000 -0.000001 
0.683119 189.613266 25.985691 15.556024 -2.271852 -0.771060 3.889689 -0.490536 1.353991 7.496174 -1.145701 1.527324 7.513483 -1.067917 1.482761 -14.011294 -1.918340 0.677918 -53.669615 -8.716979 -1.706751 -0.000002 0.000000 -0.000000 -0.000002 0.000000 -0.000000 -0.000002 0.000000 -0.000000 1.096994 -2.453014 -2.426499 18.290757 -54.521435 1.417895 0.000076 -76.715414 0.000039 39.916117 -8.705217 26.276117 0.006858 0.307918 -2.552373 0.112683 1.243101 -10.358723 0.028139 0.623133 -5.170753 0.000002 -0.000003 0.000001 -1.962143 -18.076149 2.832660 5.402107 26.915108 2.051660 0.256273 11.035678 3.436385 0.000001 -0.000003 -0.000001 0.006947 0.309846 -2.568355 0.112335 1.241206 -10.342735 0.028140 0.623130 -5.170752 -0.000001 0.000001 -0.000003 0.006945 0.309844 -2.568355 0.112339 1.241205 -10.342734 0.028138 0.623134 -5.170752 -0.000001 0.000002 -0.000001 0.170924 4.360830 -2.064617 0.105437 -2.814087 -10.845187 0.028141 0.623133 -5.170748 -0.000001 -0.000002 0.000002 0.843100 -6.904927 9.814688 -34.373545 2.102109 67.098945 -0.000010 51.401340 0.000012 62.062370 1.054960 1.716171 0.004638 -0.254625 2.089781 0.172558 -1.542499 12.765524 0.043271 -0.776055 6.381596 -0.000001 0.000000 0.000002 -1.842181 2.756014 -5.606186 6.154507 -26.178097 -1.323832 -0.494203 -8.610925 -3.004268 0.000002 0.000001 0.000001 0.004639 -0.254621 2.089780 0.172560 -1.542473 12.765533 0.043260 -0.776059 6.381584 0.000003 -0.000000 -0.000001 0.004636 -0.254625 2.089786 0.172557 -1.542484 12.765526 0.043256 -0.776066 6.381584 0.000003 -0.000000 0.000004 0.004640 -0.254619 2.089786 0.172556 -1.542497 12.765522 0.043264 -0.776052 6.381598 0.000000 -0.000000 0.000004 -50.483643 6.982110 17.852853 50.882700 -2.048090 2.317999 -0.955917 0.429446 -8.317680 -9.387456 0.021656 -1.417866 -0.000000 0.000000 0.000000 -44.239193 8.417861 -16.914958 45.537510 -8.162787 0.145081 -3.104365 -0.553323 10.979427 0.158936 -0.000007 -0.000001 0.000001 0.000001 0.000000 
-4.966401 186.318604 21.555687 20.405445 -5.169643 0.560975 5.149958 -0.963052 0.884433 9.751869 -1.872497 1.164310 9.765443 -1.803693 1.118602 -12.990186 -1.358928 -1.215921 -56.297984 -8.345122 -0.197509 0.000001 -0.000001 -0.000001 0.000001 -0.000001 -0.000001 0.000001 -0.000001 -0.000001 1.050812 -2.524506 -2.875603 8.200495 -49.583676 -1.531996 -0.000012 -77.732409 -0.000034 42.693054 -8.730630 28.676249 0.006958 0.310095 -2.570449 0.112698 1.243174 -10.359385 0.028139 0.623181 -5.171091 -0.000001 0.000000 -0.000000 -1.814893 -14.846492 3.352115 5.402111 26.915108 2.051657 0.256271 11.035693 3.436385 0.000000 -0.000002 -0.000000 0.007044 0.312020 -2.586431 0.112353 1.241275 -10.343393 0.028138 0.623182 -5.171089 -0.000001 0.000003 -0.000002 0.007040 0.312024 -2.586432 0.112355 1.241274 -10.343390 0.028140 0.623178 -5.171088 -0.000000 -0.000001 -0.000000 0.172302 4.362958 -2.082753 0.105450 -2.814023 -10.845842 0.028138 0.623179 -5.171089 -0.000001 0.000001 0.000001 0.732585 -3.937295 10.516967 -44.002459 5.178453 67.702467 -0.000002 48.470359 0.000004 61.725499 2.560454 -2.874613 0.000006 -0.005733 0.047177 0.151563 -1.446764 11.960693 0.037988 -0.727323 5.979397 0.000001 0.000002 -0.000002 -1.833120 0.942759 -5.886569 6.154543 -26.178537 -1.323851 -0.494186 -8.611143 -3.004293 -0.000002 -0.000001 0.000000 0.000003 -0.005744 0.047171 0.151563 -1.446746 11.960711 0.037991 -0.727329 5.979399 -0.000001 -0.000000 -0.000001 0.000003 -0.005743 0.047176 0.151566 -1.446743 11.960711 0.037984 -0.727339 5.979390 -0.000002 -0.000000 0.000002 0.000010 -0.005745 0.047168 0.151560 -1.446745 11.960713 0.037984 -0.727340 5.979400 0.000001 -0.000002 0.000001 -56.640659 2.155756 19.488005 53.227142 -1.056429 0.435810 -0.098239 0.391279 -9.114114 -9.736083 0.054803 -2.245491 0.000000 0.000000 -0.000000 -48.154931 9.919789 -14.680197 39.452433 -6.377086 -0.789598 -3.131776 -1.080236 17.131808 -0.884966 0.000011 -0.000002 0.000001 -0.000000 -0.000000 
-10.084501 182.055588 17.200470 25.238591 -6.918010 1.859749 6.718484 -1.808197 0.753625 12.420072 -3.166560 1.148689 12.436941 -3.111113 1.042109 -11.099390 -0.868468 -2.474997 -59.316908 -7.482495 1.225445 0.000000 0.000000 0.000001 0.000000 0.000000 0.000001 0.000000 0.000000 0.000001 1.025892 -2.908423 -2.064041 -4.768963 -43.760749 -5.642792 -0.000013 -78.615354 -0.000022 46.133847 -8.120349 31.439743 0.006947 0.309835 -2.568297 0.112666 1.243022 -10.358049 0.028135 0.623087 -5.170418 -0.000001 0.000004 0.000001 -1.689280 -11.282361 3.907542 5.402102 26.915038 2.051653 0.256269 11.035645 3.436383 0.000002 -0.000002 -0.000000 0.007033 0.311767 -2.584280 0.112323 1.241117 -10.342061 0.028129 0.623098 -5.170424 -0.000000 -0.000002 -0.000002 0.007032 0.311764 -2.584278 0.112323 1.241127 -10.342060 0.028132 0.623091 -5.170422 -0.000003 -0.000001 0.000002 0.172137 4.362705 -2.080594 0.105418 -2.814183 -10.844508 0.028131 0.623100 -5.170420 -0.000001 0.000002 -0.000001 0.532688 -2.995049 10.386758 -54.649716 9.260767 69.528935 -0.000008 43.703833 0.000018 61.492630 3.768422 -7.436596 0.000004 0.000665 -0.005399 0.150253 -1.440577 11.908705 0.037661 -0.724182 5.953422 0.000001 0.000001 -0.000000 -1.832313 0.536782 -5.949280 6.154539 -26.178353 -1.323836 -0.494196 -8.611046 -3.004275 0.000000 0.000001 -0.000001 -0.000001 0.000654 -0.005399 0.150261 -1.440554 11.908718 0.037663 -0.724186 5.953414 -0.000000 -0.000001 0.000000 -0.000001 0.000651 -0.005406 0.150258 -1.440559 11.908711 0.037661 -0.724176 5.953426 -0.000000 -0.000000 0.000003 0.000004 0.000661 -0.005400 0.150255 -1.440570 11.908700 0.037662 -0.724178 5.953421 0.000000 0.000002 0.000003 -63.468904 -0.831954 20.840225 55.977891 0.037780 0.571618 -0.217784 0.505535 -11.612493 -9.060563 0.045456 -2.046461 0.000000 0.000001 0.000000 -56.339464 12.230360 -12.689713 43.042828 -6.251650 -0.281758 -7.387154 -2.088889 19.825358 -0.754929 0.000003 -0.000000 -0.000000 0.000000 -0.000000 
-14.408392 178.011688 13.584122 29.979104 -6.806523 2.515044 8.361926 -2.415681 0.855656 15.078790 -3.851301 1.713028 15.113267 -3.784139 1.443708 -9.061958 -1.030090 -1.055047 -60.783493 -6.962571 0.745761 0.000000 0.000002 0.000000 0.000000 0.000002 0.000000 0.000000 0.000002 0.000000 1.294685 -4.141062 -0.772057 -19.428220 -41.811153 -9.929700 -0.000119 -75.470394 -0.000145 49.096236 -8.546582 32.685433 0.006957 0.310041 -2.570035 0.112703 1.243187 -10.359464 0.028141 0.623185 -5.171128 -0.000001 0.000003 -0.000001 -1.596543 -7.553534 4.473951 5.402126 26.915400 2.051674 0.256281 11.035843 3.436399 0.000001 -0.000002 -0.000001 0.007042 0.311962 -2.586018 0.112353 1.241297 -10.343475 0.028139 0.623182 -5.171135 0.000000 -0.000001 -0.000001 0.007040 0.311967 -2.586016 0.112354 1.241299 -10.343477 0.028142 0.623180 -5.171129 -0.000002 0.000002 -0.000001 0.172272 4.362898 -2.082334 0.105451 -2.814011 -10.845917 0.028137 0.623188 -5.171129 0.000000 0.000001 0.000001 -0.363539 -6.446514 10.553625 -64.520774 12.319405 72.201465 0.000006 31.960419 -0.000014 61.602303 4.891770 -12.229879 -0.000000 -0.000403 0.003208 0.158981 -1.481292 12.250743 0.039861 -0.744892 6.124348 -0.000001 -0.000002 0.000003 -1.832376 0.577349 -5.943005 6.154513 -26.178421 -1.323863 -0.494178 -8.611082 -3.004281 -0.000005 0.000002 0.000001 0.000002 -0.000400 0.003199 0.158988 -1.481276 12.250750 0.039846 -0.744897 6.124348 -0.000001 0.000000 0.000000 0.000004 -0.000398 0.003199 0.158973 -1.481292 12.250737 0.039854 -0.744887 6.124360 -0.000001 0.000002 -0.000001 0.000001 -0.000404 0.003205 0.158977 -1.481281 12.250745 0.039847 -0.744905 6.124343 -0.000001 0.000000 0.000001 -70.015176 -3.417603 20.981112 57.734961 1.206102 1.746077 -0.703657 0.702491 -14.688913 -7.593896 0.014234 -1.149772 -0.000001 0.000002 -0.000000 -67.562373 12.305678 -11.408572 50.585952 -4.833732 0.144652 -5.989296 -1.702541 18.690411 -3.708987 -0.000008 -0.000001 -0.000000 0.000000 -0.000000 
